{
	"asset":{
		"generator":"Khronos glTF Blender I/O v3.6.27",
		"version":"2.0"
	},
	"scene":0,
	"scenes":[
		{
			"name":"Scene",
			"nodes":[
				0
			]
		}
	],
	"nodes":[
		{
			"mesh":0,
			"name":"Avatar",
			"rotation":[
				0.7071068286895752,
				0,
				0,
				0.7071068286895752
			]
		}
	],
	"meshes":[
		{
			"extras":{
				"targetNames":[
					"Key 1"
				]
			},
			"name":"Avatar",
			"primitives":[
				{
					"attributes":{
						"POSITION":0
					},
					"indices":1,
					"targets":[
						{
							"POSITION":2
						}
					]
				}
			],
			"weights":[
				0
			]
		}
	],
	"accessors":[
		{
			"bufferView":0,
			"componentType":5126,
			"count":32078,
			"max":[
				0.39365699887275696,
				0.09790900349617004,
				0.012796999886631966
			],
			"min":[
				-0.3425079882144928,
				-0.17953099310398102,
				-1.6154969930648804
			],
			"type":"VEC3"
		},
		{
			"bufferView":1,
			"componentType":5123,
			"count":192456,
			"type":"SCALAR"
		},
		{
			"bufferView":2,
			"componentType":5126,
			"count":32078,
			"max":[
				0.03664207458496094,
				3.725290298461914e-09,
				0
			],
			"min":[
				-0.03595606982707977,
				-3.725290298461914e-09,
				0
			],
			"type":"VEC3"
		}
	],
	"bufferViews":[
		{
			"buffer":0,
			"byteLength":384936,
			"byteOffset":0,
			"target":34962
		},
		{
			"buffer":0,
			"byteLength":384912,
			"byteOffset":384936,
			"target":34963
		},
		{
			"buffer":0,
			"byteLength":384936,
			"byteOffset":769848,
			"target":34962
		}
	],
	"buffers":[
		{
			"byteLength":1154784,
			"uri":"data:application/octet-stream;base64,"
		}
	]
}
